<svg version="1.1" id="Paintbrush--Streamline-Noto-Emoji" xmlns="http://www.w3.org/2000/svg" xmlns:xlink="http://www.w3.org/1999/xlink" x="0" y="0" viewBox="0 0 32 32" xml:space="preserve" enable-background="new 0 0 128 128" height="32" width="32">
  <desc>
    Paintbrush Streamline Emoji: https://streamlinehq.com
  </desc>
  <path d="M30.79805 13.635775c-0.03095 0.015475 -0.064475 0.03095 -0.09545 0.049025" fill="none" stroke-width="0.25"></path>
  <g>
    <path d="M10.15345 21.408125c-2.0611 1.364625 -4.960575 0.1135 -6.9675 3.2013 -0.325025 0.50045 -0.616525 1.3775 -0.990575 2.657 -0.294075 1.000875 -1.8728 1.705125 -1.8728 1.705125s1.35945 1.4394 2.641525 1.715425c1.854725 0.402425 4.519475 0.603625 6.3252 -1.3646 2.058525 -2.244275 1.1376 -4.3157 2.95105 -5.56165 -0.002575 0 -0.025775 -3.719775 -2.0869 -2.3526Z" fill="#F09300" stroke-width="0.25"></path>
    <path d="M8.62375 22.047875c-0.206375 0.180575 -0.260525 0.4798 -0.2528 0.75325 0.033525 1.039575 0.864175 1.9992 1.888275 2.177175 0.415325 0.072225 0.900275 0.002575 1.155675 -0.332775 0.286325 -0.374025 0.177975 -0.91575 -0.023225 -1.341375 -0.22185 -0.466925 -0.53915 -0.8874 -0.93125 -1.22275" fill="#C67100" stroke-width="0.25"></path>
    <path d="M31.422325 1.33105s-0.510775 -0.686175 -1.818625 0.079975c-1.77735 1.039575 -7.529875 5.321725 -14.430325 12.431125 -1.552925 1.59935 -2.1643 2.520275 -2.1643 2.520275s-0.38435 0.58815 1.0886 2.0611c1.470375 1.470375 2.835 1.7696 2.835 1.7696l1.165975 -1.1995c8.3218 -8.56945 12.5111 -14.064025 13.303025 -15.8388 0.61395 -1.38525 0.02065 -1.823775 0.02065 -1.823775Z" fill="#1565C0" stroke-width="0.25"></path>
    <path d="M14.856075 18.39515c-1.47295 -1.431675 -1.697375 -2.184925 -1.697375 -2.184925s-0.4411 0.286325 -0.7068 0.62685c-0.402425 0.515925 -0.446275 0.887375 -0.446275 0.887375L8.703725 21.859575s-0.420475 0.7842 0.838375 2.00435c1.25625 1.22015 2.03015 0.779025 2.03015 0.779025l4.037075 -3.417975s0.368875 -0.054175 0.8745 -0.472075c0.33275 -0.276 0.6062 -0.72485 0.6062 -0.72485s-0.760975 -0.2038 -2.23395 -1.6329Z" fill="#BDBDBD" stroke-width="0.25"></path>
    <path d="M14.0951 18.42095c-0.00515 0.00515 -0.00775 0.010325 -0.0129 0.015475 -0.090275 0.103175 -0.24765 0.105775 -0.38435 0.079975 -0.4953 -0.09545 -0.838375 -0.42565 -1.016375 -0.87965 -0.08255 -0.2141 -0.098025 -0.46175 0.002575 -0.668125 0.18315 -0.37145 0.451425 -0.12125 0.6578 0.085125 0.26055 0.263125 0.4927 0.5572 0.6836 0.871925 0.046425 0.077375 0.092875 0.159925 0.110925 0.2502 0.01805 0.08515 0.010325 0.178 -0.041275 0.245075Z" fill="#EEEEEE" stroke-width="0.25"></path>
    <path d="M15.761525 15.015875c0.464325 1.034425 4.385325 -3.038775 5.378475 -4.096425 0.4953 -0.52625 3.918425 -3.6063 3.14455 -3.735275s-2.53575 1.387825 -3.11875 1.852175c-1.165975 0.926075 -2.659575 2.3887 -3.81265 3.5908 -0.56495 0.585575 -1.767025 1.9992 -1.591625 2.388725Z" fill="#2196F3" stroke-width="0.25"></path>
    <path d="M11.15435 19.499225c0.105775 -0.110925 0.232175 -0.232175 0.39725 -0.232175 0.154775 0 0.283775 0.10835 0.389525 0.211525 0.34825 0.340525 0.6707 0.812575 0.4824 1.238225 -0.0774 0.172825 -0.227025 0.306975 -0.37405 0.43595 -0.57525 0.508175 -1.147925 1.013775 -1.723175 1.521975 -0.345675 0.304375 -0.673275 -0.092875 -0.80225 -0.397275 -0.1161 -0.2786 -0.028375 -0.50045 0.121225 -0.7455 0.4308 -0.719725 0.926075 -1.41105 1.509075 -2.032725Z" fill="#EEEEEE" stroke-width="0.25"></path>
    <path d="M15.217225 20.96445c0.059325 0.04125 0.123825 0.098025 0.116075 0.167675 -0.002575 0.025775 -0.01805 0.051575 -0.033525 0.072225 -0.136725 0.1883 -0.412725 0.227 -0.634575 0.1522 -0.219275 -0.074825 -0.397275 -0.237325 -0.567525 -0.3947 -0.647475 -0.608775 -1.287225 -1.240775 -1.75155 -1.999175 -0.072225 -0.1161 -0.446275 -0.789375 -0.1883 -0.85385 0.165075 -0.041275 0.53655 0.557175 0.642325 0.681 0.45915 0.52625 0.9596 1.016375 1.493575 1.4678 0.29925 0.24765 0.606225 0.484975 0.9235 0.706825Z" fill="#9E9E9E" stroke-width="0.25"></path>
    <path d="M9.286725 29.322375s-2.47385 1.387825 -5.10505 0.995725c0 0 2.08175 -0.3792 2.963975 -3.198725 0 0 -2.004375 2.0869 -3.81525 2.228775 0 0 1.72835 -0.900275 1.83925 -3.6295 -0.9235 1.6458 -1.5297 2.468675 -3.000075 2.96655 1.5813 -1.69995 1.00605 -4.062875 1.00605 -4.062875 -0.32245 0.503025 -0.611375 1.37235 -0.982825 2.6415 -0.294075 1.0009 -1.8728 1.705125 -1.8728 1.705125s1.35945 1.439425 2.641525 1.71545c1.854725 0.405 4.52205 0.603625 6.3252 -1.36205Z" fill="#C67100" stroke-width="0.25"></path>
  </g>
</svg>