<svg xmlns="http://www.w3.org/2000/svg" width="5382" height="1249"><path fill="#000000" d="M425.125 124.75A225.14 225.14 0 0 1 430 129c.895.8 1.79 1.601 2.71 2.426C450.17 147.932 459.26 169.75 464 193l.496 2.43c5.113 26.75 4.468 56.862-.496 83.57l-.504 2.9c-2.124 12.156-4.864 24.149-8.036 36.07a927.372 927.372 0 0 0-1.517 5.814l-.978 3.556-.856 3.168C451 333 451 333 449.065 334.354 447 335 447 335 444 335v2c-6.565.784-12.468 1.11-19 0v-2l-2.375-.438C420 334 420 334 418 333c-.526-8.138 1.047-15.122 3.188-22.938 5.687-21.824 9.657-43.517 10.812-66.062l.184-3.54c.07-3.173-.02-6.288-.184-9.46l-.125-2.495c-1.798-33.06-9.385-67.248-34.25-90.942-9.8-8.219-21.127-12.163-33.813-11.934-16.844 1.64-31.43 11.5-43.812 22.371l-2.434 2.031c-4.735 4.025-8.54 8.222-12.156 13.281L304 165h-2l-.82 2.273c-1.128 2.606-2.227 4.215-4.055 6.352-6.093 7.62-11.04 16.066-16.125 24.375l-1.178 1.912C237.586 269.006 228.492 360.334 218 570l-.022 2.613c-.695 68.401-.695 68.401 2.797 136.685.225 2.7.437 5.4.647 8.102 4.02 51.261 12.64 101.512 24.578 151.475l.888 3.74c3.744 15.69 7.921 31.11 13.112 46.385l.723 2.142c10.31 30.369 22.468 65.02 49.277 84.858 5.747 1.809 9.923-.274 15.103-2.926C336.879 996.406 347.375 987.437 357 978l3.082-2.965c6.482-6.295 12.4-12.87 17.918-20.035l1.652-2.125C388.85 941.009 397.24 928.848 405 916l1.242-2.03C437.641 862.616 460.03 806.225 481 750l1.274-3.413c14.2-38.145 27.471-76.626 40.672-115.126l2.773-8.086.684-1.996a7460.652 7460.652 0 0 1 14.144-40.835c3.094-8.87 6.206-17.73 9.453-26.544-.613-.29-1.225-.58-1.856-.877C534.608 546.033 526.372 528.98 522 515a160.488 160.488 0 0 1-3-14l-.555-3.105c-3.076-26.901.71-55.086 17.91-76.88 4.987-5.72 10.028-10.296 16.645-14.015l1.953-1.14c8.92-4.859 17.627-6.14 27.672-6.235l2.675-.042c9.887.07 17.32 2.843 24.7 9.417 10.642 10.937 11.498 28.754 11.349 43.215-.828 29.703-10.31 56.936-22.349 83.785l2.21.855c2.548 1.046 4.954 2.227 7.415 3.457 12.16 5.494 25.443 7.745 38.468 10.247 11.999 2.308 23.543 4.898 34.907 9.441l3.328 1.324c13.028 5.83 23.724 16.5 28.86 29.864 6.418 21.135 5.638 43.119 3.156 64.769l-.261 2.292c-1.93 16.783-4.698 33.394-7.629 50.027a5746.33 5746.33 0 0 0-3.86 22.203c-1.972 11.46-3.748 22.94-5.39 34.45l-.315 2.193c-6.054 40.7-6.054 40.7.111 80.878 9.732-4.267 16.357-14.993 22.64-23.23a342.878 342.878 0 0 1 3.895-4.961C733.298 811.246 739.2 802.235 745 793l1.945-3.059c16.752-26.722 31.392-54.72 45.84-82.73a981.521 981.521 0 0 1 6.782-12.915 603.031 603.031 0 0 0 3.445-6.612 321.608 321.608 0 0 1 5.233-9.695c11.78-20.999 18.93-37.086 18.706-61.493.466-33.332 13.633-68.84 28.049-98.496l1.163-2.405C864.88 497.79 875.833 481.793 889 467l2.156-2.594C906.752 446.016 928.243 434.054 952 430c4.04-.242 8.08-.231 12.125-.25 1.616-.03 1.616-.03 3.266-.063 12.55-.06 23.307 2.857 32.836 11.282 10.756 11.118 13.16 25.87 13.146 40.818-.646 23.473-12.99 42.597-29.56 58.338C963.505 557.606 937.866 561.892 912 561l-.148 2.035-.227 3.028-.272 3.646a366.877 366.877 0 0 1-.843 9.093c-1.448 14.376-1.82 28.634-1.77 43.078.01 3.683 0 7.365-.013 11.048-.012 18.469.444 37.031 4.46 55.135l.648 2.981c3.627 16.041 8.115 34.98 20.165 46.956v2h2l2.25 2.313c3.447 3.368 6 5.668 11.016 5.703 28.849-3.628 57.77-32.265 74.96-54.063 21.098-27.18 39.472-56.244 56.774-85.953l3.82-6.543c2.925-5.01 5.845-10.021 8.76-15.035a146.023 146.023 0 0 1 3.028-4.931c1.404-2.513 2.028-4.495 2.568-7.307l.56-2.785.576-2.962c3.676-17.7 8.753-34.172 16.688-50.437l1.492-3.074c12.259-23.721 31.643-44.438 57.387-52.703 23.328-7.09 47.672-3.45 69.059 7.777 4.098 2.313 7.6 4.819 11.062 8l1.137-2.16c2.971-5.561 5.918-10.908 9.863-15.84h2l1-3c6.65-6.127 16.665-7.999 25.438-8.375 9.023.416 18.563 1.58 25.074 8.328 7.44 10.232 5.286 25.752 3.508 37.587-1.799 10.898-4.072 21.708-6.268 32.531l-1.19 5.866-.6 2.96c-3.568 17.638-6.615 35.26-8.962 53.103l-.46 3.388c-2.102 15.85-3.01 31.713-3.727 47.674l-.13 2.875c-.81 18.325-1.005 36.559.067 54.875l.13 2.248c2 33.647 4.61 75.276 26.12 102.94 8.937-1.532 15.135-12.71 20.066-19.676 8.298-12.042 15.5-24.765 21.792-37.955a672.627 672.627 0 0 1 3.994-8.1c31.812-64.277 54.43-133.498 78.73-200.832a1657.703 1657.703 0 0 1 5.963-16.278l1.256-3.403a864.68 864.68 0 0 1 2.385-6.384c2.156-5.87 3.497-11.134 3.814-17.372l.195-3.421c.182-3.467.347-6.935.5-10.403.142-3.232.292-6.463.442-9.694l.362-7.867c1.372-29.76 2.94-59.503 4.906-89.232l.46-7.014c1.406-21.485 3.157-42.929 5.135-64.369-5.564-.554-11.128-1.106-16.693-1.654-1.886-.186-3.772-.374-5.658-.562-6.214-.619-12.43-1.213-18.649-1.784l-3.656-.343c-13.515-1.09-27.108-.902-40.657-.907l-2.056-.002c-21.36-.013-42.423.507-63.631 3.252l-3.509.422c-56.386 6.86-109.11 28.53-157.61 57.632-2.358 1.414-4.722 2.816-7.086 4.22a443.915 443.915 0 0 0-5.055 3.09c-7.715 4.6-7.715 4.6-12.724 4.773-3.124-1.178-4.953-2.314-7.329-4.637-2.616-2.572-2.616-2.572-5.687-4.5a169.574 169.574 0 0 1-4-7l-1.25-2c-1.211-3.23-1.166-5.574-.75-9 2.16-2.176 3.917-3.608 6.438-5.25l2.043-1.41A379.058 379.058 0 0 1 1138 331l2.073-1.376a700.033 700.033 0 0 1 12.71-8.215 806.488 806.488 0 0 0 6.639-4.276C1212.535 282.825 1267.996 263.466 1331 259l2.168-.17c113.951-8.77 113.951-8.77 149.832 9.17l.126-2.602c.606-10.664 1.93-21.15 3.499-31.71l.396-2.684c11.044-74.347 11.044-74.347 30.979-93.004 8.627-6.338 20.903-7.041 31.168-5.535 6.994 1.36 13.008 3.042 17.832 8.535 4.296 7.28 4.179 16.336 4.129 24.563l-.01 2.381c-.064 7.383-.53 14.702-1.181 22.056l-.183 2.13c-1.537 17.939-3.483 35.842-5.38 53.745l-.24 2.265c-.461 4.355-.925 8.71-1.393 13.064l-.638 5.973-.396 3.655-.342 3.183c-.37 3.013-.845 5.994-1.366 8.985l3.18.33c6.051.76 11.977 2.113 17.933 3.4l5.837 1.245 6.151 1.314c47.824 10.212 95.208 18.936 144.274 18.961l3.57.002c84.19-.076 181.59-22.892 244.055-83.252 2.434-2.584 4.71-5.29 7-8 2.265-2.63 4.54-5.252 6.813-7.875l1.744-2.021 1.65-1.909 1.484-1.718A79.872 79.872 0 0 1 2007 200c7.36.342 12.033 4.957 17 10 3.488 5 5.97 9.814 5 16-1.807 3.118-4.03 5.844-6.313 8.625l-1.935 2.415A284.861 284.861 0 0 1 2004 256l-1.51 1.588c-59.276 62.23-151.027 87.184-234.582 89.271-60.25 1.298-119.246-11.13-177.678-24.355-3.795-.858-7.59-1.712-11.386-2.567-7.283-1.64-14.564-3.288-21.844-4.937l-.138 1.955a8809.725 8809.725 0 0 1-2.697 37.241C1550.349 405.1 1547.1 455.996 1545 507l-.093 2.242c-2.943 71.383-4.22 143.418.093 214.758l.154 2.593c3.66 66.26 3.66 66.26 28.846 126.407 14.048-2.049 27.079-20.528 35.126-31.224 16.847-22.912 30.58-47.847 43.502-73.122 1.734-3.355 3.55-6.658 5.372-9.966 4.682-8.723 8.732-17.749 12.867-26.739l.848-1.844.847-1.842c2.543-5.514 5.17-10.984 7.813-16.45 6.091-12.648 11.855-25.442 17.641-38.232 2.671-5.9 5.36-11.79 8.062-17.676 1.696-3.696 3.383-7.395 5.05-11.104 3.067-6.806 6.203-13.521 9.7-20.117 9.271-17.965 10.789-33.172 11.024-53.036.096-6.857.695-13.596 1.585-20.398l.337-2.77c2.119-15.798 2.119-15.798 7.101-20.793 12.348-9.248 28.462-9.975 43.188-8.062 9.095 1.735 17.308 5.348 22.851 12.957 3.908 8.7 3.478 18.143 3.461 27.48l.004 2.464c-.003 16.695-1.102 33.31-2.237 49.957-3.89 53.379-3.89 53.379.858 106.517l.422 2.44c2.475 13.665 7.221 26.408 15.578 37.56 14.601-4.233 25.96-17.412 35-29l2.332-2.855c19.297-24.099 32.944-52.997 45.3-81.126 1.45-3.198 2.998-6.336 4.56-9.48 1.041-2.2 2.081-4.4 3.12-6.601l1.513-2.894c4.157-9.093 2.893-17.109 1.803-26.727-1.067-9.738-.926-19.507-.889-29.292.011-3.38 0-6.76-.012-10.14 0-2.187.003-4.374.007-6.56l-.012-3.006c.071-10.654 1.285-21.088 8.903-29.069 7.086-5.249 15.203-6.784 23.785-7.855 2.514-.122 2.514-.122 3.59-1.395 2.332-.1 4.666-.13 7-.125l3.875-.008C1968 493 1968 493 1969 494c2.163.3 4.33.565 6.5.813 9.194 1.278 17.308 3.918 23.5 11.187 4.515 7.52 5.145 15.36 5.273 23.996l.038 2.404c.032 2.68.05 5.358.064 8.038l.016 2.843c.066 26.63-2.198 53.16-4.2 79.696-4.57 60.617-8.574 130.361 17.809 187.023l1.363 3.04c4.175 8.889 9.628 16.107 16.637 22.96 17.947-5.832 29.224-32.776 37.136-48.216C2101.774 730.798 2117.88 667.359 2134 606l-2.355-.912c-8.73-3.591-15.871-10.704-22.645-17.088l-1.867-1.672c-31.369-29.2-39.204-81.01-40.75-121.479-1.423-40.672-.172-95.303 29.055-127.349 12.24-12.844 24.855-18.949 42.562-20.5 14.453-.036 27.467 3.728 38.188 13.625 21.73 23.262 22.242 61.522 22.124 91.438l-.006 3.02c-.179 51.954-9.127 103.522-20.181 154.167l-.458 2.1c-2.47 11.257-2.47 11.257-3.667 13.65 19.136 4.64 36.77-1.156 53.231-10.917 12.962-7.934 25.136-17.513 36.292-27.817a322.853 322.853 0 0 1 6.254-5.555c4.226-3.687 8.328-7.492 12.41-11.336l2.077-1.945c1.33-1.25 2.654-2.506 3.97-3.769 1.44-1.354 2.945-2.64 4.465-3.903 3.536-4.238 5.037-9.117 6.926-14.258 11.192-29.13 27.914-60.505 57.54-74.29 17.58-7.506 37.009-8.743 55.1-1.991 14.194 6.55 22.18 16.85 27.876 31.066 5.752 18.173 4.947 39.71-3.329 56.902-8.49 16.036-21.52 27.93-38.687 34.125-14.729 4.475-29.152 4.627-44.125 1.688-3.376 35.433-3.376 35.433-4 71l.054 2.406c.917 35.084 3.364 86.252 29.942 112.57 3.68 3.229 5.71 5.002 10.629 5.087 22.462-2.826 43.32-24.985 56.762-41.797 17.037-21.953 29.464-46.722 40.863-71.953l1.604-3.552c9.253-20.753 17.633-41.873 25.959-63.011 1.378-3.496 2.757-6.992 4.137-10.487.848-2.146 1.694-4.292 2.538-6.438 1.162-2.945 2.336-5.885 3.512-8.825l1.3-3.315 1.308-3.262 1.172-2.955c1.501-3.036 2.907-4.59 6.005-5.925 9.374-2.298 17.322-1.876 26.215 1.644 2 1.813 2 1.813 2.32 4.885-.38 4.671-1.675 8.289-3.433 12.596l-.986 2.497c-1.06 2.679-2.136 5.35-3.213 8.023-.742 1.862-1.482 3.725-2.22 5.589a4177.3 4177.3 0 0 1-4.434 11.122c-2.18 5.456-4.31 10.931-6.433 16.41-9.412 24.227-19.455 48.207-30.601 71.691l-1.318 2.805c-9.67 20.476-21.528 39.511-35.682 57.195l-1.443 1.81c-19.832 24.613-46.219 46.17-78.65 49.725-25 2.33-49.735-.98-69.782-17.097-3.563-2.983-6.854-6.14-10.125-9.438l-1.668-1.457c-6.661-5.942-10.89-13.91-15.332-21.543l-1.691-2.863c-8.957-16.473-13.695-35.678-16.309-54.137l-.533-3.593c-1.696-12.209-1.818-24.348-1.78-36.657l.001-3.174c.018-17.03.868-33.708 3.312-50.576-1.007.8-2.014 1.598-3.05 2.422-14.552 11.42-29.467 22.176-46.95 28.578l-3.527 1.36c-17.437 6.326-39.06 9.815-57.473 6.64l-2-1-.68 3.221c-2.54 11.845-5.592 23.498-8.883 35.154l-.789 2.808C2125.722 774.273 2125.722 774.273 2098 817l-1.984 3.074c-10.99 16.466-24.813 32.185-45.088 36.352-18.696 3.301-36.466.76-52.416-10.094L1997 845v-2l-1.71-.71c-26.6-14.98-39.254-64.126-46.93-90.93-6.291-22.823-10.725-46.157-15.36-69.36l-.496-2.47c-.44-2.202-.873-4.407-1.3-6.612l-.715-3.652c-.471-3.146-.582-6.09-.489-9.266h-2l-1.09 3.71c-2.118 6.337-5.28 12.066-8.473 17.915-.626 1.154-1.253 2.307-1.9 3.496-4.745 8.636-9.752 16.906-15.537 24.879l-1.413 1.973c-16.296 22.676-36.195 45.244-65.024 50.34-19.256 2.427-38.413.578-54.735-10.458-26.934-21.241-37.064-56.507-43.367-88.85-.391-2.061-.391-2.061-1.461-4.005l-1.478 3.291C1690.256 758.625 1690.256 758.625 1671 792l-1.483 2.591c-13.084 22.806-27.342 45.17-46.517 63.409l-2.172 2.086c-15.005 14.026-32.259 20.644-52.902 20.094-21.328-1.31-37.278-7.53-52.461-23.313C1460.852 793.34 1465.206 686.541 1464 608l-1.183 3.31c-67.617 188.807-67.617 188.807-110.825 211.253-6.347 2.856-12.053 4.288-18.992 4.437l-2.832.117c-15.13.357-27.81-2.345-39.48-12.43-30.475-29.26-36.494-77.581-40.938-117.437l-.252-2.259c-1.798-16.343-2.63-32.663-3.05-49.097-.052-1.997-.11-3.995-.167-5.992l-.092-3.516c-.196-3.507-.644-6.917-1.189-10.386l-.94 2.322c-13.846 34.044-28.601 69.326-51.06 98.678l-1.648 2.363L1190 731h-2l-1 3c-12.248 10.848-25.152 12.741-41.012 11.82-11.828-1.191-21.722-5.2-29.894-14.023-17.295-23.103-19.607-54.099-22.094-81.797l-2.063 3.313c-29.44 47.075-29.44 47.075-47.792 66.367-2.26 2.323-2.26 2.323-4.145 5.32h-2l-.75 1.875c-1.478 2.512-2.69 2.886-5.25 4.125l-1 3c-2.433 2.58-5.261 4.752-8 7l-1.507 1.253c-8.67 7.177-17.642 13.307-27.493 18.747l-3.496 1.938c-28.314 14.912-64.375 18.771-95.133 10.03-22.184-7.336-40.15-21.407-51.863-41.855-3.284-6.78-5.95-13.837-8.642-20.868A558.282 558.282 0 0 0 832 703l-1.554 3.14c-9.045 18.259-18.085 36.482-28.02 54.277a620.38 620.38 0 0 0-4.551 8.43C782.699 797.335 765.688 824.19 745 849l-1.828 2.242c-1.345 1.625-2.751 3.199-4.172 4.758h-2l-1 3h-2v2c-14.488 12.844-29.984 18.17-49.125 18.438l-3.034.067C670.434 879.47 660.529 875.61 652 868c-2.74-3.13-4.92-6.402-7-10l-1.328-2.277c-15.347-29.966-14.9-68.953-14.922-101.785l-.004-3.733c.006-23.845 1.291-47.451 3.254-71.205 6.836-45.813 6.836-45.813-5-88-9.256-9.47-24.774-12.321-36.95-16.322l-3.062-1.006-2.764-.903C582 572 582 572 580 571l-.457 1.799c-2.353 8.958-5.28 17.703-8.215 26.482l-1.68 5.049c-1.488 4.47-2.98 8.937-4.473 13.404-.93 2.778-1.857 5.557-2.784 8.336-8.342 24.984-16.756 49.937-25.563 74.762-2.096 5.914-4.164 11.838-6.234 17.762-8.596 24.56-17.372 49.031-26.776 73.295-.82 2.115-1.636 4.23-2.452 6.346-7.33 18.979-15.086 37.75-23.1 56.45a829.663 829.663 0 0 0-6.204 14.94c-2.81 6.9-5.896 13.64-9.105 20.36a835.61 835.61 0 0 0-3.047 6.507C447.67 922.77 434 949.444 417 973l-1.388 1.932C402.995 992.385 389.566 1008.367 372 1021l-1.68 1.209C340.54 1043.268 305.075 1045.652 270 1040c-35.094-6.654-67.806-28.425-89-57l-1.47-1.964c-15.176-20.329-26.957-41.1-36.526-64.574-1.004-2.462-2.021-4.92-3.04-7.376C108.263 831.976 102.019 742.654 99 595l.019-2.342c.206-24.386 2.115-48.445 4.981-72.658l.283-2.39C111.508 456.988 124.704 397.596 145 340l1.214-3.447C164.226 286.003 188.484 237.78 221 195l2.785-3.719c4.458-5.92 9.118-11.571 14.14-17.023a221.052 221.052 0 0 0 5.45-6.196C251.174 159.15 259.683 151.297 269 144l3.02-2.43c41.667-33.22 106.663-52.584 153.105-16.82ZM2141 340c-20.99 23.648-19.23 65.726-19.25 95.25l-.003 3.268c.026 40.892 2.55 85.327 21.253 122.482l2 1c19.604-91.401 19.604-91.401 15-184l-.406-2.217c-2.436-12.98-7.475-26.018-16.594-35.783h-2ZM577 423c-11.964 17.842-16.098 39.155-12.797 60.258 1.995 9.37 5.167 18.34 9.797 26.742 2.775-2.775 3.388-6.007 4.438-9.688l.665-2.319c6.065-21.6 11.667-48.718 1.897-69.993-2.019-3.123-2.019-3.123-4-5Zm376.184 35.797c-17.699 17.857-26.704 40.715-33.621 64.453l-.75 2.56c-1.504 5.397-2.42 10.594-2.813 16.19 2.302 2.302 7.827 1.49 11 1.528 10.002-.219 19.178-4.854 26.426-11.755 12.971-14.613 20.135-31.724 19.91-51.296-.977-10.114-5.611-18.878-13.336-25.477-3.068 0-4.615 1.838-6.816 3.797Zm1435.308.39c-19.881 22.283-27.52 55.115-31.492 83.813 6.412 3.871 11.526 5.043 19 4 10.925-3.027 19.472-13.654 25-23 7.324-13.03 9.774-27.561 6.242-42.125-2.706-8.914-6.872-17.9-14.242-23.875-2.927-.31-2.927-.31-4.508 1.188ZM1199 486c-1.844 2.074-3.429 3.996-5 6.25l-1.286 1.842c-32.012 47.757-29.04 131.793-28.964 186.97l.002 2.145c.025 7.651.289 15.198 1.248 22.793 4.283-3.95 7.351-8.197 10.438-13.125l1.556-2.484c28.25-45.986 46.062-98.498 62.641-149.585.74-2.279 1.485-4.556 2.232-6.833a1590.8 1590.8 0 0 0 3.117-9.637l.97-2.938.865-2.732.768-2.375c.494-2.739.182-4.629-.587-7.291-1.655-2.283-1.655-2.283-3.832-4.398l-2.404-2.444-2.576-2.533-2.61-2.586c-9.856-9.55-23.885-22.027-36.578-11.039ZM3346.613 145.129c2.543 2.218 4.975 4.512 7.387 6.871l2.05 1.906c22.902 23.13 28.162 62.71 28.2 93.656l.005 2.22c.003 19.463-1.952 38.681-4.294 57.991l-.245 2.057c-.356 2.868-.799 5.418-1.716 8.17h-2v2c-8.556 3.735-19.17 4.228-28 1-2.192-2.018-2.192-2.018-4-5a52.7 52.7 0 0 1 .45-8.676l.278-2.554c.299-2.697.628-5.39.96-8.082.406-3.517.802-7.034 1.199-10.551l.3-2.604c4.443-39.145 1.702-81.615-23.187-113.97-6.346-7.532-12.872-12.762-22-16.563l-1.992-.855c-8.271-2.832-16.575 1.035-24.05 4.575-12.25 6.055-22.117 13.88-31.958 23.28l-2.375 2.215C3177.822 243.398 3153.017 345.835 3121 588c-1.716 86.598 6.886 176.664 35 259l1.084 3.219c12.032 35.518 26.955 71.267 51.916 99.781l2.203 2.57c8.208 9.385 16.931 17.244 27.797 23.43l2.273 1.32c8.194 4.23 16.212 3.684 24.82.983 18.353-6.302 33.499-17.173 47.653-30.237 2-1.833 4.047-3.576 6.129-5.316 10.312-9.026 18.904-19.845 27.125-30.75l2.418-3.152c8.231-10.958 14.856-22.933 21.582-34.848l1.67-2.931c14.354-25.303 25.69-52.028 36.33-79.069l1.461-3.69c15.095-38.188 28.183-77.149 40.35-116.359a432.304 432.304 0 0 1 4.576-13.889c4.504-13.12 5.416-25.15 5.55-38.983 1.02-50.237 18.42-102.904 54.59-138.571 17.05-16 38.109-23.528 61.293-22.797 14.45.799 26.537 4.811 37.93 13.68 2.06 1.803 2.06 1.803 4.25 1.609 1.34-1.627 1.34-1.627 2.688-3.688 4.16-5.746 9.9-10.596 17.082-11.761 5.613-.44 10.701-.682 16.23.449v2l2.375.438C3660 461 3660 461 3662 462c9.713 18.304 9.332 39.19 9.438 59.313l.02 3.702c.09 33.59-2.709 67.048-5.43 100.507-1.196 14.814-2.177 29.638-2.196 44.505l-.013 3.12c-.01 3.264-.01 6.527-.006 9.79l.001 3.404c-1.056 57.75-1.056 57.75 20.186 109.659 5.575-2.887 9.733-6.223 14.125-10.688l1.964-1.984c6.412-6.621 11.985-13.765 17.383-21.224a440.585 440.585 0 0 1 4.407-5.94c9.862-13.32 17.93-27.786 26.121-42.164l1.935-3.385c8.624-15.142 16.728-30.525 24.637-46.05a15384.668 15384.668 0 0 0 3.196-6.276c2.61-5.11 5.287-10.182 7.986-15.246 3.089-5.803 6.06-11.632 8.809-17.606 2.645-5.657 5.32-11.294 8.124-16.875l.949-1.886c.702-1.396 1.406-2.791 2.11-4.187 8.08-16.03 16.148-32.064 23.777-48.317a177.155 177.155 0 0 1 4.829-9.531c4.92-9.202 6.8-17.579 7.638-28.006.66-7.854 1.836-16.298 7.448-22.197 9.221-5.174 20.318-5.673 30.562-3.438 5.786 2.34 9.831 4.522 12.563 10.313 5.428 15.547 4.576 33.726 4.753 50.023l.063 4.85c.055 4.205.105 8.41.153 12.615.05 4.311.106 8.622.161 12.933.107 8.422.209 16.844.307 25.266l.88-3.113c20.153-71.096 44.195-149.54 98.12-202.887l2.402-2.395c12.685-12.098 27.019-19.457 44.785-20.043 9.844.402 18.92 2.396 26.813 8.438l3.125 2.188c19.05 16.675 19.819 53.074 21.441 76.21 3.893 65.746-2.497 131.873-7.697 197.34-3.892 46.444-3.892 46.444-5.119 93.012l.008 2.507c.07 18.13.659 36.112 5.242 53.743 4.09-2.987 7.064-6.356 10-10.438l1.427-1.973c24.218-34.05 41.78-72.73 58.755-110.757a4342.19 4342.19 0 0 1 2.213-4.945c7.297-16.315 14.277-32.768 21.308-49.2 11.564-27.02 23.32-53.945 35.415-80.733.933-2.066 1.864-4.133 2.796-6.2 1.659-3.681 3.322-7.36 4.987-11.04.636-1.404 1.27-2.81 1.905-4.215 3.202-7.098 6.459-14.168 9.89-21.16l1.633-3.335c4.344-7.808 10.69-12.518 18.898-15.93 8.459-2.328 18.388-1.594 26.273 2.176 1.52.882 3.024 1.795 4.5 2.75l3.125 2c19.69 17.905 20.975 52.812 22.158 77.422.644 15.449.844 30.891.963 46.351l.025 3.236c.078 10.038.148 20.076.206 30.114.196 36.982.196 36.982 2.523 73.877l.228 2.506c.417 4.449.93 8.877 1.522 13.307l.506 3.835c2.343 16.752 5.66 33.888 12.744 49.352l1.281 2.816c2.147 4.497 4.36 8.451 7.719 12.184 19.314-4.457 35.343-30.487 45.2-45.926 17.212-27.759 29.896-57.367 40.8-88.074l1.054-2.937c10.211-28.658 17.322-58.402 23.946-88.063l-2.284-.832c-2.507-1.078-4.125-2.09-6.17-3.856l-1.862-1.6-1.934-1.712-2.018-1.778c-22.455-20.035-36.48-47.7-43.544-76.722l-.554-2.254c-3.792-16.783-5.16-33.517-5.009-50.683l.013-2.838c.074-13.732.393-27.263 3.362-40.725l.552-2.508c4.688-20.52 11.764-43.74 30.198-55.93 12.023-6.59 25.131-6.883 38.137-3.597 10.693 3.555 17.453 11.567 22.676 21.223C4506.105 411.103 4501.9 474.543 4497 524l-.213 2.154c-1.758 17.68-3.666 35.347-6.787 52.846l1.566.344c4.44 1.197 8.712 2.913 13.024 4.5 15.984 5.42 30.067-.821 44.451-7.791 14.296-7.103 27.809-15.506 40.9-24.63 1.39-.96 2.8-1.888 4.231-2.785 5.764-3.826 7.556-7.58 9.578-14.076 8.313-23.946 21.435-43.858 38.25-62.562l1.86-2.082c16.22-17.144 37.683-26.344 61.14-27.918 17.521 0 33.055 4.438 47 15l.867-2.313c2.778-6.59 7.8-10.668 14.133-13.687 8.726-2.944 18.258-2.904 27 0 4.762 3.572 6.312 7.129 7.336 12.89 1.706 12.449.528 25.14-.559 37.594l-.198 2.33c-1.44 16.874-3.4 33.68-5.424 50.492-6.78 56.417-13.626 113.804-9.155 170.694l.282 3.593c2.394 29.074 5.126 61.001 23.09 85.259 1.62 1.392 1.62 1.392 4.003 1.039 5.933-2.013 11.303-6.34 15.625-10.828l2-2.063h2l.695-1.676c1.67-2.973 3.801-5.067 6.18-7.511 51.229-54.41 77.834-138.294 104.706-206.51l1.153-2.927c.738-1.878 1.474-3.757 2.208-5.637 1.6-4.09 3.221-8.16 4.961-12.192l.87-2.05c.75-1.754 1.517-3.5 2.285-5.246 1.488-5.135.645-9.82-.39-15.024-4.426-25.41 2.995-50.334 17.332-71.227 2.834-3.831 5.82-7.452 9-11l1.816-2.066C4996.7 435.159 5013.803 425.555 5032 421l2.637-.684c21.895-4.634 46.19-2.107 65.363 9.684 16.13 11.133 24.078 26.354 28.313 45.188 1.891 11.902 1.216 24.905-.313 36.812l-3 1-1 3c-8.719 1.841-17.709 3.484-26.063-.438C5096 514 5096 514 5094 512c-.164-2.667-.164-2.667-.055-6.047l.084-3.73.096-3.973c.143-10.447.155-19.564-4.125-29.25l-1.508-3.582c-4.931-11.079-11.687-20.002-22.734-25.418-7.167-2.599-13.492-1.378-20.32 1.684-15.552 8.398-25.026 23.279-30.438 39.691-3.599 15.618-.814 31.058 7.195 44.824 9.794 15.2 22.556 27.76 36.805 38.801l4.262 3.344c7.57 5.928 15.192 11.78 22.898 17.531 19.83 14.839 38.444 30.484 55.84 48.125.999 1.001 1.998 2.002 3 3l2.457-2.309c6.124-5.722 12.324-11.23 18.863-16.48 2.813-2.32 5.498-4.742 8.18-7.211a222.476 222.476 0 0 1 11-9.5c4.816-3.889 9.398-7.982 13.957-12.168 5.967-5.472 12.133-10.705 18.328-15.916 3.01-2.534 5.996-5.09 8.953-7.686l1.873-1.634a529.69 529.69 0 0 0 3.544-3.124c7.414-6.46 14.086-7.983 23.845-7.972 4.207.405 8.168.822 11.773 3.14 2.007 3.042 1.705 5.32 1.227 8.86-2.02 2.555-2.02 2.555-4.813 4.875l-1.506 1.281A257.551 257.551 0 0 1 5258 575l-2.758 2.254c-1.805 1.47-3.613 2.937-5.426 4.398-3.56 2.969-6.942 6.104-10.335 9.262-4.088 3.78-8.361 7.283-12.7 10.774-3.553 2.954-6.921 6.081-10.303 9.228a185.627 185.627 0 0 1-9.916 8.521c-5.416 4.36-10.481 9.038-15.562 13.778-2.959 2.758-5.984 5.431-9.043 8.078A544.096 544.096 0 0 0 5175 647.5a917.091 917.091 0 0 1-13 11.5l1.031 1.844c14.573 26.354 25.583 53.176 29.969 83.156l.537 3.617c1.527 11.035 1.803 21.981 1.779 33.11-.003 2.94.02 5.878.045 8.818.111 33.126-7.115 66.393-23.361 95.455l-1.104 1.999c-6.219 11.08-13.869 20.103-22.896 29.001l-1.473 1.477c-24.47 24.339-58.293 34.593-92.152 34.898-28.351-.256-54.474-7.67-75.473-27.34-14.043-15.13-19.362-33.827-18.88-54.067 1.195-27.777 12.958-53.6 28.978-75.968l1.922-2.715c10.459-14.58 21.808-28.228 33.683-41.664 1.288-1.497 2.502-3.057 3.708-4.621l1.687-2h2l.81-1.795c1.208-2.238 2.434-3.697 4.228-5.486l1.862-1.872c.665-.657 1.33-1.314 2.014-1.992l2.086-2.084c1.459-1.456 2.92-2.91 4.383-4.36 2.218-2.2 4.428-4.407 6.637-6.616 1.422-1.418 2.845-2.835 4.27-4.252l1.976-1.974a221.121 221.121 0 0 1 11.925-10.967c1.816-1.608 3.5-3.295 5.184-5.04C5080 695 5080 695 5082 695l1-3c2.063-1.688 2.063-1.688 4-3-6.181-13.53-19.808-24.888-30.188-35.313l-2.267-2.28A254.094 254.094 0 0 0 5040 638l-1.713-1.475c-1.634-1.408-3.273-2.81-4.912-4.212l-1.802-1.545c-3.038-2.603-6.08-5.2-9.132-7.788-11.698-9.934-22.85-20.3-33.753-31.105l-2.593-2.553-2.396-2.392-2.161-2.15C4980 583 4980 583 4980 581h-2l-.472 1.72c-2.116 7.401-4.881 14.465-7.778 21.592l-1.583 3.917-2.521 6.23a2147.75 2147.75 0 0 0-5.334 13.286c-8.505 21.375-17.529 42.433-27.312 63.255l-.915 1.951c-17.263 36.8-36.444 73.856-64.085 104.049l-1.37 1.507c-13.088 14.23-29.768 26.177-49.63 27.493-18.063.728-33.285-1.878-47.18-14.14-35.443-34.555-36.64-100.715-40.82-146.86l-.33-3.611A5923.43 5923.43 0 0 1 4728 654l-.775 2.053c-7.361 19.45-14.837 38.684-24.35 57.197l-1.45 2.85c-6.28 11.962-14.818 22.59-26.8 29.212-7.67 2.01-15.75 1.92-23.625 1.688-.897-.017-1.794-.034-2.719-.05-14.36-.723-23.868-7.788-33.23-18.141-30.39-36.005-28.646-93.223-25.348-137.054.253-2.351.648-4.487 1.297-6.755l-1.702.99c-17.675 10.195-35.045 17.892-55.298 21.01l-2.36.395c-13.28 1.872-34.41 2.72-46.64-3.395l-.314 2.294c-1.285 8.889-3.11 17.6-5.186 26.331l-.52 2.2C4464.398 696.207 4443.65 758.381 4405 809l-1.637 2.344L4402 813h-2l-.66 1.668c-1.773 3.086-4.164 5.283-6.778 7.644l-1.625 1.47c-16.113 14.253-33.827 19.605-55 19.468l-3.642.023c-21.16-.046-39.34-8.52-54.451-23.304-38.813-39.655-46.83-105.3-52.094-157.782l-.252-2.507c-1.144-11.548-1.94-23.09-2.498-34.68l-6.45 14.832a44867.22 44867.22 0 0 1-5.516 12.676c-5.891 13.54-5.891 13.54-11.73 27.101-7.177 16.753-14.75 33.287-22.573 49.745a2487.679 2487.679 0 0 0-4.704 9.966c-41.554 88.13-41.554 88.13-72.152 101.117-12.933 4.157-29.184 4.038-41.438-1.875-3.01-1.619-5.828-3.344-8.437-5.562v-2l-3-1c-16.394-17.895-19.68-45.705-22.75-68.688l-.306-2.254c-3.63-27.174-4.322-54.371-4.262-81.741.006-2.609.008-5.218.011-7.827.041-28.256.815-56.332 3.307-84.49l.25-2.895c2.568-29.716 6.134-59.314 9.895-88.898 1.657-13.082 3.218-26.165 4.535-39.285l.363-3.615c2.387-24.217 2.387-24.217-.043-48.307-9.24 5.353-15.442 12.685-22 21l-1.996 2.402c-10.031 12.13-18.041 25.623-25.725 39.32a576.669 576.669 0 0 1-2.398 4.233c-15.773 27.635-26.75 57.989-36.881 88.045l-.753 2.234c-21.863 65.096-34.897 132.611-48.027 199.879-.655 3.348-1.313 6.695-1.973 10.043-.42 2.146-.833 4.294-1.244 6.443l-.733 3.737-.607 3.142C3895 785 3895 785 3893 788h-2v2c-4.166 2.083-8.124 2.414-12.695 2.754-2.463.18-2.463.18-5.305 1.246l-2-1a497.207 497.207 0 0 0-10.52-1.207c-3.973-.905-5.687-1.844-8.48-4.793-2.662-4.985-3.757-9.95-4.5-15.5l-.367-2.68c-6.674-52.169-6.682-105.316-8.133-157.82l-.791 1.674c-5.292 11.185-10.651 22.326-16.226 33.373-1.723 3.423-3.426 6.854-5.131 10.285-14.416 28.952-14.416 28.952-21.539 42.216-1.532 2.861-3.051 5.729-4.57 8.597-16.175 30.411-33.416 61.354-56.868 86.855l-1.688 1.838c-1.351 1.43-2.764 2.803-4.187 4.162h-2v2c-12.485 10.592-24.507 16.564-41 18l-2.324.219c-14.199.649-27.687-3.676-38.363-12.907C3607.284 771.687 3608.097 698.69 3605 651l-.835 1.778C3568.4 728.723 3568.4 728.723 3540 739c-14.636 3.65-31.907 2.797-45.25-4.688-7.77-5.051-13.211-11.298-17.75-19.312-2.238 5.818-4.22 11.673-6.082 17.621a22284.624 22284.624 0 0 1-2.754 8.724c-45.764 144.879-45.764 144.879-89.086 201.909a303.936 303.936 0 0 0-3.906 5.273l-1.61 2.223-1.37 1.922L3371 954h-2l-.772 1.754c-2.324 4.252-6.063 7.418-9.478 10.808l-2.458 2.444c-6.715 6.586-13.647 12.527-21.292 17.994l-1.75 1.278c-36.088 26.176-80.209 31.602-123.413 25.175-37.202-5.942-70.084-25.458-96.837-51.453l-1.48-1.418c-15.872-15.227-29.6-33.494-40.52-52.582l-1.17-2.041c-42.917-75.188-62.77-165.365-63.033-254.139l-.009-2.578c-.015-4.527-.024-9.055-.028-13.583-.005-3.643-.018-7.286-.041-10.929-.124-19.957.163-39.79 1.656-59.699l.187-2.497c6.023-78.594 24.091-157.5 56.438-229.534l1.448-3.25c12.449-27.835 26.664-54.368 43.552-79.75l1.38-2.075c6.076-9.096 12.475-17.848 19.353-26.354a509.484 509.484 0 0 0 3.466-4.36C3147.6 200.419 3163 184.158 3180 171l3.078-2.453c7.005-5.547 14.24-10.642 21.873-15.296 1.442-.88 2.88-1.77 4.313-2.666 39.312-24.436 98.117-37.417 137.35-5.456ZM4444 365c-21.86 33.783-23.784 78.13-15.732 116.6 4.388 19.768 11.152 38.366 21.482 55.837l1.068 1.808c2.347 3.805 4.943 6.726 8.182 9.755 8.436-52.713 19.282-135.735-12-183l-3-1Zm263.992 102.004c-8.884 8.902-13.127 19.285-16.992 30.996l-.854 2.581C4675.052 547.48 4669.7 599.07 4666 648l-.286 3.688c-.69 9.777-.87 19.514-.844 29.315.005 2.522 0 5.045-.007 7.567 0 1.633.002 3.266.004 4.899l-.006 2.241c.022 4.842.459 9.495 1.139 14.29 25.276-27.726 34.76-81.267 46.41-116.215l.798-2.392c1.261-3.785 2.516-7.572 3.76-11.362 2.006-6.091 4.034-12.154 6.372-18.129 5.827-15.043 7.825-30.004 9.832-45.909.834-6.42 2.096-12.678 3.749-18.934 1.33-5.194 1.121-8.155-1.452-12.856-5.555-8.332-11.459-16.406-20.469-21.203-3.146 0-4.768 1.992-7.008 4.004ZM3577 480c-13.35 10.035-23.096 25.204-28.315 40.95-.758 2.27-1.568 4.518-2.38 6.769-15.119 42.664-20.52 88.852-20.617 133.906l-.012 2.9c-.031 15.67 1.085 30.3 5.324 45.475 5.081-4.003 9.015-8.185 12.688-13.5.51-.736 1.022-1.471 1.549-2.23 24.394-35.915 39.341-78.004 53.747-118.64 1.911-5.381 1.911-5.381 2.82-7.54 2.174-5.267 2.798-10.112 3.11-15.778l.182-2.733c.188-2.859.359-5.719.529-8.579.18-2.86.365-5.72.55-8.58.115-1.771.225-3.543.331-5.315.24-3.869.555-7.669 1.122-11.504.471-4.564-.604-6.267-3.128-10.038l-1.102-1.671c-4.807-7.251-4.807-7.251-10.398-13.892h-2l-1-3c-2.213-1.65-2.213-1.65-4.875-3.125l-2.68-1.57c-2.472-1.407-2.472-1.407-5.445-2.305Zm1525 232-1 3a80.894 80.894 0 0 1-4 2c-1.688 1.396-1.688 1.396-3.28 3.038l-1.873 1.862c-.657.665-1.314 1.33-1.992 2.014l-2.084 2.086c-1.456 1.459-2.91 2.92-4.36 4.383-2.2 2.218-4.407 4.428-6.616 6.637a8987.602 8987.602 0 0 0-4.252 4.27l-1.974 1.976a236.705 236.705 0 0 0-11.082 12.013c-1.866 2.16-3.801 4.25-5.737 6.346-5.092 5.645-9.747 11.595-14.386 17.612a616.89 616.89 0 0 1-3.934 5.02C5015.582 809.482 4993.806 842.4 4997 876c2.201 15.925 10.177 31.168 22.813 41.313 12.306 8.508 24.381 12.07 39.187 10.687 12.138-2.461 22.615-9.171 32-17l2.918-2.293c3.346-2.796 5.946-6 8.582-9.457l1.454-1.891A716.082 716.082 0 0 0 5108 892l1.762-2.316C5132.368 858.035 5134.92 816.08 5129 779c-3.26-17.936-8.92-35.648-17-52-.587-1.244-1.173-2.49-1.758-3.734-.621-1.298-1.243-2.595-1.867-3.891l-1.727-3.602c-1.407-3.056-1.407-3.056-4.648-3.773Z"/><path fill="#000000" d="M4161.281 995.777c4.064 1.828 7.95 3.846 11.719 6.223v2h2v2l3 1v2h2c7.527 10.42 11.183 21.122 10 34-1.66 7.505-4.384 14.333-8.047 21.074-1.1 1.867-1.1 1.867-.953 3.926l6 3v2l1.688.688c2.974 1.688 5.032 3.779 7.312 6.312v2h2c1.148 2.27 2.294 4.54 3.438 6.813l.986 1.947c5.008 9.965 5.35 22.26 2.6 33.084-1.178 2.861-2.457 5.49-4.024 8.156l-1.152 2.05c-1.035 1.7-1.035 1.7-2.848 3.95h-2l-1 4h-2v2l-4 1v2c-15.797 8.308-34.074 15.246-52.125 9.813-4.682-1.907-8.752-4.463-10.994-9.156-.885-2.67-1.285-4.997-1.535-7.794l-.284-3.048-.28-3.288-.313-3.448a2749.01 2749.01 0 0 1-.969-11.141l-.334-3.852c-2.429-28.093-4.302-55.995-4.515-84.199-.017-2.112-.04-4.225-.068-6.337-.036-2.95-.044-5.9-.044-8.85l-.043-2.66c.043-5.836 1.211-9.206 4.504-14.04h2l.75-1.875c5.57-9.47 29.01-4.476 37.531-1.348ZM4144 1020c-.142 13.699.27 27.32 1 41l1.86-.93 6.14-3.07v-2h2l2-5h2c2.964-6.668 4.824-13.208 2.121-20.309-2.76-4.964-5.577-7.038-11.121-8.691a318.271 318.271 0 0 0-6-1Zm3 72c.403 5.252.812 10.503 1.227 15.753.14 1.788.279 3.576.416 5.363.197 2.565.4 5.129.603 7.693l.183 2.436c-.019 3.686-.019 3.686 1.571 6.755 7.3.811 14.502-1.751 21-5v-2l3-1c3.14-4.211 4.599-8.747 4.34-13.969-.599-3.577-1.914-6.703-3.34-10.031h-2l-1-3c-5.462-3.838-10.087-4.163-16.625-4.125l-2.063-.012c-3.782-.047-3.782-.047-7.312 1.137ZM4574.938 996l2.062 1v2h2c4.567 7.681 4.483 14.814 4.25 23.563l-.055 3.923A835.775 835.775 0 0 1 4583 1036h2l1-4h2l.688-2.086c1.617-3.592 3.87-6.484 6.312-9.539 3.625-4.594 3.625-4.594 7-9.375h2l1-4h2l.688-2.188c1.88-4.03 4.585-6.642 8.25-9.125 4.748-1.582 8.63-.773 13.062 1.313v2h2v2h2v4h2c.832 7.626-1.415 11.065-6 17l-3.082 4.035c-1.712 2.24-3.427 4.477-5.152 6.707-3.47 4.497-6.752 9.034-9.715 13.887L4610 1048h-2l-1 4h-2l-1 4h-2l-.875 2.188C4600 1061 4600 1061 4598.75 1063.5c-.957 3.191-.242 4.599 1.25 7.5h2l2 6h2c1.29 1.68 1.29 1.68 2.625 3.875l1.352 2.18C4611 1085 4611 1085 4611 1087h2c1.227 1.617 1.227 1.617 2.625 3.875 2.969 4.637 6.308 8.837 9.836 13.059C4627 1106 4627 1106 4627 1108h2l1 4h2c4 4.47 4 4.47 4 7h2c3 3.462 3 3.462 3 6l3 1v2h2v2h2c3.006 5.01 3.293 8.327 3 14h-2l-.313 2.313c-.931 3.643-2.408 4.819-5.437 6.874-3.282 1.186-5.781 1.172-9.25.813-3.438-1.875-3.438-1.875-6-4v-2h-2v-2l-3-1v-2h-2v-2h-2l-1-4h-2v-2l-3-1c-3-3.444-3-3.444-3-6h-2l-1-4h-2l-1-4h-2c-1.512-1.712-1.512-1.712-3.258-4.086l-1.894-2.57-1.973-2.719-1.996-2.695c-4.879-6.667-4.879-6.667-4.879-8.93h-2a2081.72 2081.72 0 0 0-.063 9.438l-.016 2.949c-.005 5.491.12 10.947.442 16.43l.19 3.379c.13 2.168.276 4.335.443 6.501.484 8.305.484 8.305-1.809 11.873-3.568 3.964-6.75 6.619-12.187 6.93-4.224-.234-6.778-1.727-10-4.5-4.687-6.788-4.509-13.07-4.938-21.125l-.126-2.32c-.968-18.176-1.48-36.37-1.994-54.564-.066-2.329-.134-4.657-.201-6.985-.448-15.473-.828-30.947-.909-46.426a1348.92 1348.92 0 0 0-.052-6.02l-.006-3.64-.015-3.186c.243-2.751.824-4.39 2.241-6.734h2v-2h2v-2c4.467-2.859 9.021-2.674 13.938-1ZM4887.188 992.875c1.284.684 2.556 1.391 3.812 2.125 1.33.673 2.663 1.342 4 2v2l1.813.25c2.816.966 3.665 2.239 5.187 4.75v2h2c1.296 2.227 2.587 4.456 3.875 6.688l1.105 1.896c3.707 6.435 5.273 10.955 5.02 18.416h-2v4h-2l-1 3c-2.773 1.804-5.095 2.317-8.375 2.375l-2.21.086c-4.06-.775-7.124-2.769-9.642-6.07-1.128-1.805-2.151-3.635-3.148-5.516l-1.074-1.918c-2.551-4.639-2.551-4.639-2.551-6.957h-2l-1.25-1.563c-1.759-1.754-1.759-1.754-4.75-1.437-3.1.754-3.1.754-4.875 3.125-1.663 4.25-2.02 7.737-.223 12.031.712 1.397 1.451 2.78 2.223 4.145.875 1.699.875 1.699.875 3.699l1.676.734c2.823 1.538 5.06 3.436 7.511 5.516a131.494 131.494 0 0 0 12.665 9.34 168.199 168.199 0 0 1 6.71 4.66l2.004 1.453L4904 1065v2h2v2l1.813.813c2.185 1.186 3.6 2.283 5.187 4.187v2h2l1 4h2c7.468 15.155 12.271 28.731 7.313 45.875-2.78 7.977-6.48 14.978-12.313 21.125h-2v2l-4 1v2c-1.393.652-2.79 1.297-4.188 1.938l-2.355 1.09c-9.898 3.918-21.745 2.92-31.457-1.028-2.027-.944-4.043-1.918-6-3v-2l-4-1v-2l-4-1v-2h-2l-1-4h-2v-2h-2c-8.084-10.024-11.217-23.36-10-36 .745-4.905 1.952-9.466 4-14h2v-2h2v-2c4.49-1.817 7.293-2.125 12-1l2.375.563 1.625.437v2h2v2h2c1.999 4.122 2.258 7.445 2 12l-1 2c-.519 6.667-.67 12.19 3 18v2h2l5 5c4.422 2.71 8.957 2.81 14 2 3.395-2.546 5.443-5.084 7-9 .753-7.939.412-14.782-3-22l-1-2.938-1-2.062-3-1v-2h-2v-2l-4-1v-2l-1.688-.813c-2.524-1.296-4.95-2.612-7.312-4.187v-2l-2.063-.688c-3.636-1.624-6.965-3.64-9.937-6.312v-2l-4-1v-2h-2v-2l-3-1v-2h-2c-3-3.462-3-3.462-3-6h-2c-6.437-11.6-9.475-21.74-7-35 1.61-5.256 3.734-10.546 7-15h2v-2h2l1-3h2v-2a304486370.624 304486370.624 0 0 1 7.52-3.809c7.513-3.608 18.027-3.747 25.667-.316ZM4736.75 994.875l2.422.055 1.828.07v2h4v2h2c2.882 5.455 5.029 10.699 6.734 16.617l.733 2.47c.768 2.594 1.526 5.19 2.283 7.788.992 3.373 1.988 6.745 2.984 10.117l.779 2.646c2.052 6.95 4.18 13.877 6.323 20.8 4.098 13.252 8.028 26.55 11.92 39.864.947 3.234 1.895 6.468 2.845 9.701.923 3.147 1.845 6.295 2.766 9.442l1.02 3.473c5.671 19.424 5.671 19.424 2.426 26.77-2.66 3.393-5.401 5.879-9.77 6.664-4.716.198-7.945-.893-12.043-3.352v-2h-2a1341.54 1341.54 0 0 1-8.813-28.813l-.95-3.199c-.292-.992-.582-1.985-.882-3.008l-.792-2.69C4752 1110 4752 1110 4752 1107l-1.66.219c-7.8.913-15.498.875-23.34.781l-.355 3.621c-.73 6.523-1.837 12.976-2.958 19.441l-.607 3.721c-1.406 8.082-2.814 15.442-9.08 21.217-3.582 2.43-6.754 2.44-11 2-3.438-1.875-3.438-1.875-6-4v-2h-2c-4.754-8.353-1.29-19.123.457-27.98l.784-4.081c.7-3.628 1.411-7.253 2.128-10.878.445-2.257.887-4.514 1.329-6.772 3.775-19.29 7.744-38.526 12.24-57.664l.65-2.778a762.082 762.082 0 0 1 7.54-29.386l.733-2.693c2.26-7.962 2.26-7.962 5.139-10.768h2v-2c3.062-1.784 5.22-2.229 8.75-2.125ZM4737 1060c-.697 2.936-1.383 5.873-2.063 8.813l-.603 2.525-.557 2.432-.523 2.237c-.426 2.198-.426 2.198.746 4.993l9-1c-.647-6.95-2.86-13.382-5-20h-1ZM5030 997v2h4v2h2v2h2c1.806 4.463 2.29 7.334 1 12-2.065 4.565-4.607 6.644-9 9-3.269.527-6.47.467-9.773.39l-2.8-.017a899.883 899.883 0 0 1-8.802-.123c-1.996-.02-3.992-.038-5.988-.055-4.88-.044-9.758-.113-14.637-.195l.217 3.652.28 4.84.142 2.395c.403 7.045.463 14.056.361 21.113l1.625-.219c5.585-.661 11.13-.917 16.75-.968l2.09-.04c3.686-.007 6.404.196 9.535 2.227v2l1.875.75c2.615 1.538 3.192 2.374 4.125 5.25.565 4.99-.079 8.33-2.738 12.492-3.71 4.433-8.846 4.9-14.262 5.508-2.981.108-5.955.096-8.938.063l-2.36-.014c-1.901-.012-3.802-.03-5.702-.049.264 4.907.53 9.815.8 14.722l.27 4.992c.509 9.442 1.061 18.868 1.93 28.286l3.777-.219c8.55-.475 17.097-.892 25.66-.968l2.092-.04c3.938-.007 6.925.498 10.471 2.227v2h2v2h2c2.292 4.872 2.786 8.74 1 13.875l-1 2.125h-2v2h-2v2c-4.913 2.577-9.79 2.34-15.2 2.371-.99.01-1.98.018-3 .027-2.094.015-4.187.024-6.281.028-3.178.011-6.355.06-9.533.111-2.04.01-4.082.017-6.123.022l-2.845.059c-7.046-.048-11.99-2.033-18.018-5.618v-2h-2v-2h-2c-7.704-14.136-6.673-31.946-7.5-47.625l-.384-7.052c-.384-7.107-.753-14.215-1.116-21.323l-.168-3.276c-.306-6.008-.604-12.017-.889-18.026-.085-1.803-.172-3.607-.26-5.41A924.394 924.394 0 0 1 4960 1029l-.082-2.705a656.787 656.787 0 0 1-.156-8.166l-.067-2.506c-.035-4.985.633-8.252 3.305-12.623h2v-2h2v-2c3.288-1.943 5.885-2.306 9.68-2.45l3.464-.132 3.731-.106 3.839-.122c14.115-.368 28.185.148 42.286.81ZM5168 988c8.571-.286 8.571-.286 12 2v2l1.875.75c2.644 1.556 3.202 2.326 4.125 5.25.348 6.043-.5 10.535-2.598 16.172l-.816 2.29c-.871 2.434-1.76 4.86-2.649 7.288a3841.75 3841.75 0 0 0-1.82 5.06 3525.49 3525.49 0 0 1-3.558 9.859 539.144 539.144 0 0 0-3.594 10.26l-.826 2.43a507.739 507.739 0 0 0-1.516 4.568c-1.508 4.448-3.324 8.48-5.557 12.616-10.291 20.053-8.593 38.88-6.652 60.848 1.4 15.92 1.4 15.92-1.039 20.984-3.644 4.028-6.82 6.807-12.375 7.125-4.243-.243-6.764-1.705-10-4.5-4.296-5.148-4.647-9.249-4.793-15.676l-.11-2.802c-.113-2.944-.2-5.889-.284-8.834-.102-2.935-.208-5.87-.317-8.803-.066-1.821-.126-3.642-.18-5.463.212-10.995.212-10.995-4.316-20.422v-2h-2l-1-4h-2l-2-6h-2c-1.445-2.168-1.445-2.168-3.125-5.188-2.486-4.387-5.023-8.718-7.688-13-6.196-10.018-12.271-20.139-17.894-30.492a246.065 246.065 0 0 0-3.367-5.828l-1.117-1.9a377.196 377.196 0 0 0-2.22-3.722c-1.955-3.338-2.589-4.887-2.589-8.87h-2c-.286-8.571-.286-8.571 2-12h2v-2h2v-2h4v-2h8v2h4v2h2v2h2l.927 1.718c8.999 16.652 18.28 33.108 28.082 49.301A492.925 492.925 0 0 1 5136 1061c5.913-14.04 10.877-28.303 15.605-42.773 1.632-4.957 3.292-9.901 5.008-14.829l1.17-3.361c1.171-2.923 2.406-5.46 4.217-8.037h2v-2h4v-2ZM4336 993c8.571-.286 8.571-.286 12 2v2h2v2h2c2.529 3.793 2.544 7.617 2 12-1.27 4.693-2.907 9.245-4.563 13.813A1598.367 1598.367 0 0 1 4344 1040l-1.063 2.944c-1.69 4.666-3.408 9.32-5.152 13.966-.784 2.089-1.56 4.18-2.335 6.273l-.762 2.05c-.494 1.328-.986 2.657-1.476 3.987-1.211 3.255-2.489 6.45-3.918 9.615-3.475 7.79-5.03 14.3-4.437 22.927.24 3.737.368 7.48.515 11.222.086 2.172.176 4.344.27 6.516.388 9.172.464 18.32.359 27.499h-2v4h-2v2h-2v2c-4.872 2.292-8.74 2.786-13.875 1l-2.125-1v-2h-2c-2.692-5.15-4.069-9.081-4.297-14.86l-.121-2.912-.117-3.119-.13-3.211a5792.77 5792.77 0 0 1-.398-10.148c-.09-2.294-.183-4.589-.275-6.883-.225-5.622-.445-11.244-.662-16.867h-2l-1-4h-2c-1.29-1.68-1.29-1.68-2.625-3.875l-1.352-2.18C4286 1083 4286 1083 4286 1081h-2l-2-6h-2l-1.469-2.605c-3.346-5.91-6.731-11.769-10.343-17.52-4.935-7.958-9.43-16.15-13.858-24.399a866.367 866.367 0 0 0-2.601-4.808 505.135 505.135 0 0 1-3.417-6.418l-1.027-1.874c-2.438-4.754-2.701-8.164-2.285-13.376 1.5-3.5 1.5-3.5 3-6h2v-2c4.13-2.002 7.433-2.332 12-2 2.438 1 2.438 1 4 2v2h2v2h2l1.481 2.81a7931.32 7931.32 0 0 0 5.508 10.422c.791 1.497 1.581 2.995 2.37 4.493 3.995 7.58 7.972 15.083 12.641 22.275a250.735 250.735 0 0 1 2.813 4.875l1.269 2.242C4297 1049 4297 1049 4297 1051h2c1.508 2.188 1.508 2.188 3.125 5l1.633 2.813L4305 1061c2.5-3.751 3.907-7.61 5.5-11.813l1.04-2.73c3.61-9.629 6.843-19.38 10.046-29.15 2.02-6.154 4.072-12.267 6.414-18.307h2v-2h2v-2h4v-2Z"/><path fill="#000000" d="M1794.375 395.313c5.621 5.755 6.119 11.63 6.042 19.412-.342 11.183-4.306 22.046-11.417 30.712-6.765 5.286-16.735 4.995-24.938 4.313-6.429-.94-10.971-3.715-15.062-8.75-5.761-10.12-10.23-23.472-7.496-35.152 2.324-7.132 7.135-11.084 13.496-14.848 12.956-5.238 28.067-4.045 39.375 4.313Z"/></svg>